<svg width="627" height="125" viewBox="0 0 627 125" fill="none" xmlns="http://www.w3.org/2000/svg">
<g clip-path="url(#clip0_1014_2)">
<path d="M195.52 41V86H180.04V47.72L187 54.68H154.12L161.08 47.72V86H145.6V41H195.52ZM204.529 86V41H219.889V77.54L215.929 76.64L237.529 41H257.749V86H242.389V48.5L246.349 49.4L224.149 86H204.529ZM266.739 86V41H282.099V73.94L278.199 70.64L300.579 41H316.779L280.779 86H266.739ZM288.339 65.3L299.739 56.36L317.379 86H299.859L288.339 65.3ZM370.767 66.5C370.287 70.62 368.867 74.22 366.507 77.3C364.187 80.38 361.107 82.78 357.267 84.5C353.427 86.22 349.027 87.08 344.067 87.08C338.707 87.08 334.027 86.1 330.027 84.14C326.027 82.18 322.907 79.44 320.667 75.92C318.467 72.36 317.367 68.22 317.367 63.5C317.367 58.78 318.467 54.66 320.667 51.14C322.907 47.58 326.027 44.82 330.027 42.86C334.027 40.9 338.707 39.92 344.067 39.92C349.027 39.92 353.427 40.78 357.267 42.5C361.107 44.22 364.187 46.62 366.507 49.7C368.867 52.78 370.287 56.38 370.767 60.5H355.227C354.867 58.94 354.207 57.62 353.247 56.54C352.287 55.42 351.027 54.58 349.467 54.02C347.947 53.42 346.147 53.12 344.067 53.12C341.747 53.12 339.747 53.54 338.067 54.38C336.427 55.18 335.167 56.36 334.287 57.92C333.407 59.48 332.967 61.34 332.967 63.5C332.967 65.66 333.407 67.52 334.287 69.08C335.167 70.6 336.427 71.78 338.067 72.62C339.747 73.46 341.747 73.88 344.067 73.88C346.147 73.88 347.947 73.62 349.467 73.1C351.027 72.54 352.287 71.72 353.247 70.64C354.207 69.52 354.867 68.14 355.227 66.5H370.767Z" fill="white"/>
<path d="M390.254 47.66H405.734V86H390.254V47.66ZM374.054 41H421.934V54.8H374.054V41ZM452.075 87.08C447.235 87.08 442.875 86.26 438.995 84.62C435.155 82.94 432.015 80.62 429.575 77.66C427.175 74.66 425.695 71.18 425.135 67.22H440.375C440.735 68.74 441.415 70.04 442.415 71.12C443.415 72.2 444.715 73.02 446.315 73.58C447.955 74.1 449.835 74.36 451.955 74.36C454.515 74.36 456.675 73.94 458.435 73.1C460.195 72.26 461.535 71.04 462.455 69.44C463.415 67.8 463.895 65.82 463.895 63.5C463.895 61.18 463.415 59.22 462.455 57.62C461.535 55.98 460.195 54.74 458.435 53.9C456.675 53.06 454.515 52.64 451.955 52.64C449.835 52.64 447.975 52.92 446.375 53.48C444.775 54 443.475 54.8 442.475 55.88C441.475 56.92 440.775 58.22 440.375 59.78H425.135C425.695 55.78 427.175 52.3 429.575 49.34C432.015 46.38 435.155 44.08 438.995 42.44C442.875 40.76 447.235 39.92 452.075 39.92C457.515 39.92 462.255 40.9 466.295 42.86C470.335 44.82 473.475 47.58 475.715 51.14C477.995 54.66 479.135 58.78 479.135 63.5C479.135 68.22 477.995 72.36 475.715 75.92C473.475 79.44 470.335 82.18 466.295 84.14C462.255 86.1 457.515 87.08 452.075 87.08ZM470.855 68.48H444.635V58.52H470.855V68.48ZM522.459 41V54.8H494.979L501.939 47.84V86H486.459V41H522.459ZM569.238 58.16V68.84H535.338V58.16H569.238ZM545.958 63.5L543.198 80.24L537.318 73.76H571.458V86H527.898L531.198 63.5L527.898 41H571.158V53.24H537.318L543.198 46.76L545.958 63.5ZM605.81 41C609.89 41 613.37 41.68 616.25 43.04C619.17 44.36 621.39 46.26 622.91 48.74C624.43 51.18 625.19 54.06 625.19 57.38C625.19 60.7 624.43 63.6 622.91 66.08C621.39 68.52 619.17 70.42 616.25 71.78C613.37 73.1 609.89 73.76 605.81 73.76H586.79V61.7H604.79C606.31 61.7 607.49 61.32 608.33 60.56C609.17 59.8 609.59 58.74 609.59 57.38C609.59 55.98 609.17 54.92 608.33 54.2C607.49 53.44 606.31 53.06 604.79 53.06H588.11L595.07 46.1V86H579.59V41H605.81Z" fill="#F2B12A"/>
<path d="M114.584 62.9631V48.1037C114.584 37.9787 114.584 32.9162 111.532 29.7704C108.479 26.6245 103.573 26.6245 93.7503 26.6245H82.9222C78.1462 26.6245 78.1045 26.6141 73.8076 24.4579L56.4587 15.7599C49.2139 12.1245 45.5889 10.3068 41.7295 10.4318C37.8701 10.5568 34.3753 12.6089 27.3597 16.7079L20.9691 20.4527C15.818 23.4631 13.2451 24.9683 11.8337 27.4735C10.417 29.9787 10.417 33.0308 10.417 39.1297V82.0256C10.417 90.0412 10.417 94.0516 12.1982 96.2808C13.3857 97.7652 15.0472 98.7599 16.8857 99.0933C19.6462 99.5881 23.0316 97.6141 29.792 93.6558C34.3857 90.9683 38.8024 88.1766 44.2972 88.9318C48.9014 89.5672 53.1774 92.4787 57.292 94.5412" stroke="white" stroke-width="8" stroke-linecap="round" stroke-linejoin="round"/>
<path d="M41.667 10.4268V88.7288" stroke="white" stroke-width="8" stroke-linejoin="round"/>
<path d="M78.125 26.0879V57.4056" stroke="white" stroke-width="8" stroke-linecap="round" stroke-linejoin="round"/>
<path d="M104.724 105.078L114.334 114.573M110.256 91.8643C110.256 96.7825 108.303 101.5 104.826 104.978C103.104 106.7 101.06 108.066 98.8103 108.999C96.5605 109.931 94.1491 110.411 91.7139 110.411C86.7956 110.412 82.0785 108.459 78.6003 104.981C75.1221 101.504 73.1677 96.7877 73.167 91.8695C73.167 86.9512 75.1208 82.2344 78.5985 78.7567C82.0762 75.279 86.793 73.3252 91.7113 73.3252C96.6295 73.3252 101.346 75.279 104.824 78.7567C108.302 82.2344 110.256 86.946 110.256 91.8643Z" stroke="#F2B12A" stroke-width="8" stroke-linecap="round"/>
</g>
<defs>
<clipPath id="clip0_1014_2">
<rect width="627" height="125" fill="white"/>
</clipPath>
</defs>
</svg>
